<svg width="60" height="60" viewBox="0 0 60 60" fill="none" xmlns="http://www.w3.org/2000/svg">
<path d="M30 0C13.4314 0 0 13.4314 0 30C0 46.5686 13.4314 60 30 60C46.5686 60 60 46.5686 60 30C60 13.4314 46.5686 0 30 0ZM30 54C16.7645 54 6 43.2355 6 30C6 16.7645 16.7645 6 30 6C43.2355 6 54 16.7645 54 30C54 43.2355 43.2355 54 30 54Z" fill="#757575"/>
<path d="M30 18C25.0294 18 21 22.0294 21 27C21 31.9706 25.0294 36 30 36C34.9706 36 39 31.9706 39 27C39 22.0294 34.9706 18 30 18Z" fill="#424242"/>
<path d="M30 12C32.7614 12 35 14.2386 35 17V30C35 32.7614 32.7614 35 30 35C27.2386 35 25 32.7614 25 30V17C25 14.2386 27.2386 12 30 12Z" fill="white"/>
<path d="M30 42C27.2386 42 25 39.7614 25 37V30C25 27.2386 27.2386 25 30 25C32.7614 25 35 27.2386 35 30V37C35 39.7614 32.7614 42 30 42Z" fill="white"/>
<path d="M30 40C31.6569 40 33 38.6569 33 37V30C33 28.3431 31.6569 27 30 27C28.3431 27 27 28.3431 27 30V37C27 38.6569 28.3431 40 30 40Z" fill="#424242"/>
<path d="M30 20C31.6569 20 33 18.6569 33 17V10C33 8.34315 31.6569 7 30 7C28.3431 7 27 8.34315 27 10V17C27 18.6569 28.3431 20 30 20Z" fill="#424242"/>
</svg>