<?xml version="1.0" encoding="UTF-8"?>
<svg version="1.1" xmlns="http://www.w3.org/2000/svg" width="100" height="144">
<path d="M0 0 C8.49679311 2.86710769 14.47437296 10.56464117 18.71484375 18.21875 C24.72809838 31.23223722 26.09539341 45.25972002 22.09765625 59.09375 C17.11393616 72.28908006 8.80742206 81.80424294 -3.91845703 87.81396484 C-16.46726726 93.44279925 -30.00734654 93.9220635 -43 89 C-56.04648178 83.89746495 -66.04890722 73.95765317 -71.75 61.25 C-76.96913187 47.83178032 -77.22517528 34.44631745 -72.30859375 20.8671875 C-69.64831726 15.0384026 -65.87997854 9.23111712 -61 5 C-60.34 5 -59.68 5 -59 5 C-58.13116294 6.57533086 -57.28040932 8.16064509 -56.4375 9.75 C-55.96183594 10.63171875 -55.48617187 11.5134375 -54.99609375 12.421875 C-53.86313577 15.35423682 -53.82686666 16.14628494 -55 19 C-56.47510877 22.04660249 -58.0494897 25.03160182 -59.625 28.02734375 C-63.36879994 36.12118397 -62.83790815 45.16631035 -60.0390625 53.484375 C-55.4334351 64.63484133 -49.09355234 70.75573854 -38.4296875 76.01953125 C-30.43512241 79.24563388 -20.57687774 79.34646413 -12.5625 76.25 C-3.20493976 71.89519338 4.42220191 65.5778458 8.5 55.875 C11.8398155 45.22933808 11.10887083 33.92727074 6 24 C5.20722656 23.02160156 5.20722656 23.02160156 4.3984375 22.0234375 C2.65791717 19.50503099 2.57339078 17.85031649 2.4375 14.8125 C2.10657265 9.68312608 1.2265482 4.98796266 0 0 Z " fill="#808080" transform="translate(76,52)"/>
<path d="M0 0 C0.66 0.33 1.32 0.66 2 1 C1.67 1.66 1.34 2.32 1 3 C-0.15581435 14.94341496 5.87248285 25.72446399 13 35 C15.25793209 37.49053313 17.59695696 39.89976939 19.9375 42.3125 C31.19436887 53.94068662 37.81754347 66.47754778 38 83 C37.13104422 93.91022256 33.87264613 103.45562914 27 112 C26.67 112 26.34 112 26 112 C26.04640625 111.41734375 26.0928125 110.8346875 26.140625 110.234375 C26.74490684 96.50854468 20.2644757 84.35222882 11.42822266 74.19287109 C9.21202265 71.77964653 6.95155403 69.41197997 4.68041992 67.05053711 C-5.73695447 56.12116149 -11.43944148 44.05430248 -11.2109375 28.8359375 C-10.4492299 18.59520193 -7.45415003 7.45415003 0 0 Z " fill="#FFFFFF" transform="translate(28,8)"/>
<path d="M0 0 C0.33 0 0.66 0 1 0 C1.07476562 0.65484375 1.14953125 1.3096875 1.2265625 1.984375 C3.05958252 14.7076904 9.04084627 23.49123843 17.30859375 32.8984375 C23.24411688 39.66580949 27.79220473 46.20414363 30 55 C30.3403125 56.2065625 30.3403125 56.2065625 30.6875 57.4375 C31.96489062 67.91210306 30.11644588 76.74166936 25 86 C24.67 86 24.34 86 24 86 C23.90525391 84.92685547 23.90525391 84.92685547 23.80859375 83.83203125 C22.1137051 70.04098994 14.88559514 60.26954624 6 50 C-3.31067821 39.07961711 -7.0185144 28.38428238 -6 14 C-4.94008285 8.64193608 -3.57026635 4.21157425 0 0 Z " fill="#FFFFFF" transform="translate(44,0)"/>
<path d="M0 0 C6.61562109 5.39050608 10.14297849 14.67035234 11 23 C11.13893211 27.52755224 10.53699319 30.35285436 7.5625 33.9375 C3.80423599 36.9624442 1.82139084 37.3781483 -3 37 C-5.77835049 35.73711341 -7.49102772 34.6477829 -9.375 32.25 C-10.32130294 28.84330943 -10.29985715 26.24964288 -9 23 C-7.71813569 21.31377077 -6.37847155 19.67071681 -5 18.0625 C-1.10835986 13.48982283 0 10.96946979 0 5 C0.020625 4.01 0.04125 3.02 0.0625 2 C0.041875 1.34 0.02125 0.68 0 0 Z " fill="#808080" transform="translate(41,89)"/>
</svg>
